<svg xmlns="http://www.w3.org/2000/svg" viewBox="64.265 242.14 348 88.5">
  <title>
    Tvar: Obtýdeník živé literatury
  </title>
  <path class="tl-l tl-l__r" fill="#FFF" d="M410.268 254.268h-.215c-7.342.152-18.538.733-28.85 3.21-10.3 2.49-19.713 6.887-23.48 14.684-1.225 2.527-2.286 4.612-3.26 6.71s-1.856 4.22-2.69 6.81c-.695 2.137-1.365 4.753-2.01 7.38-.645 2.63-1.25 5.283-1.832 7.52-.555 2.136-2.02 8.354-2.665 14.368s-.48 11.803 2.25 13.066c5.47 2.526 8.63.58 10.702-3.678 2.072-4.27 3.058-10.854 4.145-17.64.733-4.55 1.72-9.264 2.844-13.307 1.124-4.043 2.375-7.417 3.64-9.274 3.335-4.903 6.81-8.188 10.917-10.248 4.107-2.072 8.833-2.932 14.67-3.008 1.277-.013 3.97-.025 6.673-.05 2.705-.026 5.435-.05 6.748-.102.442-.013.82-.177 1.138-.455.315-.278.58-.67.796-1.162.278-.644.48-1.44.62-2.324.138-.885.2-1.87.24-2.895.037-1.225.012-2.5-.04-3.714-.012-.34-.037-.695-.05-1.023-.05-.834-.1-1.63-.14-2.325-.037-.556-.075-1.062-.088-1.48-.05-.44-.075-.794-.062-1.06"></path>
  <path class="tl-l tl-l__a" fill="#FFF" d="M298.005 311.133c5.346.973 7.127 8.454 4.006 12.637-3.03 4.056-10.967 4.08-15.377 4.208-9.604.29-23.454 2.438-32.64-.847-8.67-3.096-11.386-8.542-11.79-14.746-.897-13.647 12.61-31.376 21.33-38.807 9.553-8.15 29.05-20.054 45.226-19.953 4.965.025 9.805.57 13.71 3.488 2.16 1.617 4.802 3.576 6.255 5.674 4.068 5.913 4.36 13.812 4.106 21.798-.365 11.853-3.145 24.262-6.343 33.612-1.3 3.79-2.147 8.644-6.545 10.198-4.082 1.44-9.478-1.214-9.478-5.522 0-8.037 2.982-15.505 4.55-23.327 1.212-6.053 2.905-11.448 2.98-17.324.04-2.893.254-6.608-.782-9.477-.936-2.59-3.74-3.538-7.342-3.79-5.257-.367-11.98 1.073-14.14 1.73-6.016 1.857-16.517 6.495-20.952 11.057-5.08 5.23-14.95 13.18-16.326 20.75-3.524 19.055 29.697 9.805 39.553 8.643"></path>
  <path class="tl-l tl-l__v" fill="#FFF" d="M160.104 258.502c-5.585 8.378-7.09 19.183-8.504 28.938-.77 5.32-1.15 10.652-1.138 16.036.013 5.03-.947 11.41 2.187 15.694 5.584 7.657 15.794 10.59 24.842 9.325 10.514-1.466 19.915-7.53 28.635-13.243 15.39-10.06 29.09-24.88 37.707-41.156 2.932-5.548 7.897-15.417-1.593-17.68-3.612-.858-7.315 2.516-9.06 5.31-2.526 4.067-4.56 8.212-7.442 12.08-8.87 11.928-17.426 22.694-30.074 30.87-5.51 3.563-10.603 6.508-16.832 8.542-2.237.733-4.84.657-7.19.645-2.287-.013-3.223-1.05-4.638-2.742-2.817-3.36-1.97-10.45-1.706-14.544.48-7.557 2.806-15.365 4.537-22.72 1.124-4.727 5.28-12.662.013-16.11-2.123-1.392-6.8-2.15-8.846-.115-1.112 1.113-1.87 2.415-2.768 3.69.404-.582 1.263-2.603 1.87-2.818-4.208 6.305.038-.013 0 0"></path>
  <path class="tl-l tl-l__t" fill="#FFF" d="M94.938 261.22c2.615-5.232 8.87-18.134-2.527-16.58-3.6.493-5.724 5.055-7.404 7.835-2.085 3.437-3.69 7.114-5.434 10.73-3.146 6.53-5.774 12.824-8.138 19.7-1.276 3.7-2.4 7.53-3.323 11.17-1.06 4.145-1.566 8.504-1.756 12.787-.15 3.652.455 7.077 2.502 10.147 2.085 3.12 4.903 5.8 8.075 7.86 6.356 4.105 14.368 3.474 21.61 3.474h12.054c3.867 0 6.635-.936 10.362-2.02 2.01-.583 4.03-.67 5.257-2.402.896-1.25 2.262-3.108 2.186-4.676-.253-4.46-3.07-5.913-7.305-5.913-7.657 0-15.214 1.264-22.885 1.264-3.196 0-8.49.505-11.12-1.53-3.096-2.388-5.017-5.47-5.017-9.69 0-3.78.81-7.267 2.06-10.894 1.112-3.235 3.678-8.96 6.078-11.373 1.265-1.264 2.58-2.653 4.41-3.487 4.5-2.072 8.885-3.298 14.47-4.006 7.014-.897 14.128-1.15 21.19-1.34 4.007-.113 7.268.178 10.06-3.07 2.048-2.39 1.188-7.91-1.845-9.338-6.57-3.098-16.68-1.404-22.05-1.177-6.95.304-15.354 1.908-21.95 4.107.115-.507.215-1.088.443-1.58"></path>
</svg>