<?xml version="1.0" standalone="no"?>
<!DOCTYPE svg PUBLIC "-//W3C//DTD SVG 20010904//EN"
 "http://www.w3.org/TR/2001/REC-SVG-20010904/DTD/svg10.dtd">
<svg version="1.0" xmlns="http://www.w3.org/2000/svg"
 width="320.000000pt" height="320.000000pt" viewBox="0 0 320.000000 320.000000"
 preserveAspectRatio="xMidYMid meet">
<metadata>
Created by potrace 1.14, written by Peter Selinger 2001-2017
</metadata>
<g transform="translate(0.000000,320.000000) scale(0.100000,-0.100000)"
fill="#000000" stroke="none">
<path d="M1678 3152 c-17 -10 -44 -49 -70 -102 -51 -101 -47 -95 -54 -87 -4 3
-6 33 -5 67 1 52 -1 60 -17 60 -27 0 -64 -44 -68 -82 -16 -153 -31 -206 -83
-282 -65 -93 -136 -145 -286 -207 -186 -76 -386 -225 -490 -364 -17 -22 -38
-49 -48 -60 -40 -44 -137 -261 -163 -365 -39 -155 -38 -352 1 -506 82 -316
305 -588 609 -741 39 -20 99 -46 134 -59 110 -42 121 -56 126 -156 4 -62 40
-76 81 -32 58 63 122 26 195 -114 33 -63 37 -67 70 -67 32 0 36 4 70 67 77
146 133 175 201 107 21 -21 36 -23 59 -9 13 8 16 23 19 101 1 38 42 73 114 99
286 103 537 322 670 585 125 247 146 551 56 817 -104 311 -364 573 -706 711
-115 47 -202 121 -258 222 -44 79 -62 157 -64 285 -1 58 -7 110 -13 117 -14
18 -48 16 -80 -5z m-604 -1003 c15 -22 14 -31 -9 -84 -49 -111 -83 -229 -100
-345 -11 -76 -14 -341 -4 -405 5 -33 12 -76 14 -95 9 -58 63 -251 89 -318 29
-72 23 -107 -18 -118 -34 -8 -41 -2 -91 75 -235 365 -239 817 -9 1220 51 89
97 114 128 70z m581 -3 c18 -27 21 -41 30 -133 4 -37 8 -79 10 -93 27 -177 27
-864 0 -1020 -2 -14 -6 -53 -9 -88 -3 -35 -13 -76 -23 -92 -17 -30 -21 -32
-48 -32 -37 0 -45 4 -60 31 -8 16 -17 55 -21 88 -4 32 -8 72 -10 88 -20 189
-27 682 -11 880 11 142 27 306 33 328 1 4 2 12 3 17 2 20 42 50 66 50 15 0 31
-9 40 -24z m574 3 c48 -52 166 -320 185 -419 3 -19 8 -46 11 -60 50 -254 1
-536 -137 -775 -23 -38 -50 -80 -61 -92 -26 -29 -62 -29 -81 0 -14 20 -12 31
19 125 39 115 75 249 81 302 2 19 8 59 13 89 13 81 11 294 -4 391 -21 140 -53
253 -102 359 -22 48 -23 64 -5 84 20 23 57 22 81 -4z"/>
</g>
</svg>
